<?xml version="1.0" encoding="UTF-8"?>
<!-- Generated by Pixelmator Pro 3.6.18 -->
<svg width="24" height="24" viewBox="0 0 24 24" xmlns="http://www.w3.org/2000/svg">
    <path id="Path" fill="#ffffff" stroke="none" d="M 20.907 4.939529 L 12.68543 0.18573 C 12.262014 -0.061913 11.737946 -0.061913 11.31453 0.18573 L 3.09298 4.956501 C 2.670823 5.201122 2.409692 5.650928 2.40659 6.13883 L 2.40659 15.66529 C 2.405674 16.157228 2.667342 16.612268 3.09298 16.858919 L 11.31455 21.61838 L 11.37678 21.654209 L 15.42534 24.00001 L 15.41403 21.93895 L 15.42153 20.79435 L 15.42533 20.8132 L 15.42533 20.42853 C 15.42533 20.198469 15.54413 19.99482 15.72138 19.868481 L 15.98538 19.717621 L 16.11171 19.64785 L 16.10421 19.64785 L 20.90704 16.868349 C 21.332701 16.620806 21.594255 16.165247 21.59343 15.67284 L 21.59343 6.13505 C 21.594252 5.642632 21.332685 5.187069 20.907009 4.939529 M 11.05432 14.62816 C 11.180726 15.127864 11.027927 15.656902 10.65456 16.01226 C 10.107018 16.548159 9.231562 16.548159 8.68402 16.01226 C 8.400533 15.744073 8.23992 15.371033 8.23992 14.98079 C 8.23992 14.590548 8.400533 14.217506 8.68402 13.94932 C 8.960153 13.679036 9.335191 13.534053 9.721324 13.548315 C 10.107458 13.562576 10.470778 13.734833 10.72622 14.02475 L 14.05444 12.1089 L 14.74084 12.49546 Z M 16.824511 12.21449 C 16.276968 12.750388 15.401511 12.750388 14.85397 12.21449 C 14.455629 11.834415 14.311756 11.258936 14.48437 10.73612 L 14.47117 10.74362 L 10.71867 8.57132 L 10.6621 8.62788 C 10.11456 9.163772 9.23911 9.163772 8.69157 8.62788 C 8.408086 8.359694 8.247476 7.986654 8.247476 7.596415 C 8.247476 7.206175 8.408086 6.833138 8.69157 6.564949 C 9.239342 6.027824 10.116219 6.027824 10.66399 6.564949 C 11.05809 6.94208 11.18821 7.483271 11.05432 7.97167 L 14.83512 10.17226 L 14.85398 10.1534 C 15.401752 9.616274 16.278629 9.616274 16.826401 10.1534 C 17.107286 10.422629 17.266106 10.794847 17.266106 11.183925 C 17.266106 11.573003 17.107286 11.945221 16.826401 12.21445 Z"/>
</svg>
