<?xml version="1.0" encoding="UTF-8"?>
<!-- Generated by Pixelmator Pro 3.6.5 -->
<svg width="2000" height="2000" viewBox="0 0 2000 2000" xmlns="http://www.w3.org/2000/svg">
    <g id="help9887038">
        <path id="Path" fill="#000000" stroke="none" d="M 1000 0 C 447.71524 0 -0 447.71521 -0 1000 C -0 1552.28479 447.71524 2000 1000 2000 C 1552.28479 2000 2000 1552.28479 2000 1000 C 2000 447.71521 1552.28479 0 1000 0 Z M 1000 1866.666626 C 521.35321 1866.666626 133.333328 1478.646729 133.333328 1000 C 133.333328 521.353149 521.35321 133.333374 1000 133.333374 C 1478.646729 133.333374 1866.666626 521.353149 1866.666626 1000 C 1866.666626 1478.646729 1478.646729 1866.666626 1000 1866.666626 Z"/>
        <path id="path1" fill="#000000" stroke="none" d="M 1033.333374 800 L 966.666687 800 C 856.209717 800 766.666687 889.542969 766.666687 1000 L 766.666687 1533.333374 C 766.666687 1643.790283 856.209717 1733.333374 966.666687 1733.333374 L 1033.333374 1733.333374 C 1143.790283 1733.333374 1233.333374 1643.790283 1233.333374 1533.333374 L 1233.333374 1000 C 1233.333374 889.542969 1143.790283 800 1033.333374 800 Z M 1100 1533.333374 C 1100 1570.152344 1070.152344 1600 1033.333374 1600 L 966.666687 1600 C 929.847656 1600 900 1570.152344 900 1533.333374 L 900 1000 C 900 963.18103 929.847656 933.333374 966.666687 933.333374 L 1033.333374 933.333374 C 1070.152344 933.333374 1100 963.18103 1100 1000 Z"/>
        <path id="path2" fill="#000000" stroke="none" d="M 1000 266.666626 C 871.133545 266.666626 766.666687 371.133545 766.666687 500 C 766.666687 628.866455 871.133545 733.333374 1000 733.333374 C 1128.866455 733.333374 1233.333374 628.866455 1233.333374 500 C 1233.333374 371.133545 1128.866455 266.666626 1000 266.666626 Z M 1000 600 C 944.771484 600 900 555.228394 900 500 C 900 444.771606 944.771484 400 1000 400 C 1055.228394 400 1100 444.771606 1100 500 C 1100 555.228394 1055.228394 600 1000 600 Z"/>
    </g>
</svg>
