<?xml version="1.0" encoding="UTF-8"?>
<!-- Generated by Pixelmator Pro 3.6.18 -->
<svg width="24" height="24" viewBox="0 0 24 24" xmlns="http://www.w3.org/2000/svg">
    <path id="Path" fill="#ffffff" stroke="none" d="M 16.361 10.26 C 16.116629 10.330192 15.913704 10.501114 15.803 10.73 L 15.731 10.878 L 15.732 11.085 C 15.732 11.278 15.736 11.302 15.791 11.438 C 15.867 11.631 15.943 11.75 16.082001 11.886 C 16.322001 12.124 16.591999 12.186 16.954 12.091 C 17.178644 12.02237 17.36544 11.86484 17.471001 11.655 C 17.554201 11.50316 17.582458 11.32726 17.551001 11.157 C 17.487 10.704 17.221001 10.375 16.827 10.26 C 16.67359 10.225433 16.51441 10.225433 16.361 10.26 Z M 7.158 10.265 C 6.853 10.361 6.625 10.585 6.508 10.904 C 6.449554 11.070709 6.429056 11.248362 6.448 11.424 C 6.505 11.733 6.758 12.014 7.046 12.091 C 7.408 12.186 7.678 12.124 7.918 11.886 C 8.058 11.75 8.133 11.631 8.209 11.438 C 8.264 11.302 8.268 11.278 8.268 11.085 L 8.269 10.878 L 8.197 10.73 C 8.085196 10.498823 7.879382 10.326886 7.632 10.258 C 7.475643 10.223076 7.313258 10.225473 7.158 10.265 Z M 11.342 12.265 C 11.211 12.336 11.119 12.515 11.147 12.648 C 11.178 12.791 11.304 12.936 11.5 13.055 C 11.605 13.118 11.612 13.127 11.617 13.191 C 11.621 13.229 11.607 13.337 11.588 13.434 C 11.568 13.528 11.552 13.628 11.552 13.656 C 11.554 13.73 11.622 13.851 11.695 13.909 C 11.759 13.961 11.771 13.963 11.95 13.968 C 12.114 13.973 12.148 13.969 12.214 13.938 C 12.383 13.856 12.426 13.704 12.364 13.413 C 12.312 13.17 12.322 13.133 12.451 13.058 C 12.588 12.978 12.732 12.839 12.775 12.744 C 12.857034 12.563038 12.779254 12.349701 12.6 12.264 C 12.543117 12.23887 12.481092 12.227562 12.419 12.231 C 12.293 12.231 12.212 12.261 12.064 12.355 L 11.979 12.408 L 11.926 12.376 C 11.707 12.246 11.667 12.231 11.535 12.233 C 11.469003 12.227358 11.402644 12.238359 11.342 12.265 Z M 11.732 10.07 C 11.359 10.106 11.257 10.12 11.078 10.156 C 10.787 10.216 10.398 10.351 10.127 10.484 C 9.187 10.944 8.538 11.71 8.34 12.598 C 8.3 12.774 8.295 12.832 8.295 13.128 C 8.295 13.422 8.3 13.485 8.338 13.652 C 8.602 14.812 9.67 15.669 11.052 15.825 C 11.352 15.858 12.648 15.858 12.948 15.825 C 14.058 15.7 15.012 15.098 15.441 14.254 C 15.555 14.028 15.61 13.882 15.661 13.652 C 15.7 13.485 15.705 13.422 15.705 13.129 C 15.705 12.832 15.7 12.774 15.66 12.598 C 15.372 11.308 14.121 10.294 12.588 10.101 C 12.303921 10.072921 12.018367 10.062568 11.733 10.07 Z M 12.377 11.007 C 12.890763 11.062613 13.384143 11.238722 13.817 11.521 C 14.04 11.669 14.354 11.979 14.488 12.183 C 14.654 12.434 14.748 12.691 14.791 13.003 C 14.811 13.146 14.801 13.254 14.748 13.485 C 14.668 13.83 14.416 14.19 14.076 14.442 C 13.86165 14.586117 13.630206 14.703014 13.387 14.79 C 13.005 14.912 12.755 14.934 11.862 14.928 C 11.28 14.922 11.176 14.918 11.009 14.886 C 10.439 14.779 9.987 14.552 9.659 14.206 C 9.395 13.926 9.274 13.671 9.209 13.26 C 9.179 13.068 9.234 12.751 9.346 12.484 C 9.482 12.158 9.834 11.754 10.182 11.521 C 10.585 11.252 11.116 11.061 11.604 11.009 C 11.791 10.989 12.19 10.989 12.377 11.007 Z M 6.874 0.007 C 6.626619 0.053053 6.393017 0.154976 6.191 0.305 C 5.617 0.74 5.173 1.666 4.985 2.819 C 4.915 3.255001 4.866 3.858999 4.866 4.322001 C 4.866 4.866001 4.93 5.562 5.021 6.042999 C 5.041 6.15 5.052 6.244999 5.044 6.250999 C 4.982422 6.302589 4.920082 6.35326 4.857 6.403 C 4.497354 6.699965 4.17829 7.0429 3.908 7.423 C 3.417487 8.119204 3.095671 8.919977 2.968 9.762 C 2.913899 10.212354 2.906192 10.667072 2.945 11.119 C 3.036 11.899 3.27 12.557 3.672 13.159 L 3.802 13.354 L 3.765 13.418 C 3.496 13.87 3.267 14.523 3.16 15.15 C 3.076 15.646 3.065 15.779 3.065 16.444 C 3.065 17.114 3.074 17.247 3.153 17.709999 C 3.248 18.264999 3.441 18.853001 3.656 19.243999 C 3.727 19.372 3.899 19.636999 3.92 19.650999 C 3.927 19.653999 3.906 19.718 3.874 19.792 C 3.609504 20.389423 3.425238 21.019226 3.326 21.665001 C 3.264 22.082001 3.255 22.216999 3.255 22.656 C 3.255 23.216 3.286 23.488001 3.403 23.934999 L 3.42 24 L 4.898 24 L 4.848 23.909 C 4.551 23.357 4.523 22.334 4.78 21.312 C 4.897 20.84 5.03 20.493 5.278 20.016001 L 5.426 19.726 L 5.426 19.549 C 5.426 19.384001 5.423 19.365 5.369 19.256001 C 5.319344 19.162031 5.253695 19.077435 5.175 19.006001 C 5.012919 18.851461 4.882194 18.667089 4.79 18.462999 C 4.366 17.542999 4.284 16.177 4.582 15.012 C 4.706 14.526 4.911 14.094 5.126 13.858 C 5.264754 13.715533 5.344427 13.525818 5.349 13.327 C 5.349 13.132 5.279 12.972 5.125 12.805 C 4.679301 12.327781 4.393684 11.723336 4.308 11.076 C 4.168 10.116 4.422 9.071 4.998 8.242 C 5.561 7.427999 6.351 6.906 7.235 6.767 C 7.434 6.734001 7.805 6.739 8.011 6.777 C 8.237 6.816999 8.378 6.805 8.523 6.736 C 8.702 6.651001 8.791 6.546 8.897 6.305 C 8.99 6.09 9.062 5.972 9.257 5.729 C 9.491 5.438999 9.717 5.24 10.079 5 C 10.492 4.73 10.963 4.533001 11.431 4.438999 C 11.601 4.403999 11.681 4.399 12 4.399 C 12.319 4.399 12.398 4.403999 12.569 4.438999 C 13.285091 4.593048 13.946338 4.93749 14.483 5.436001 C 14.6 5.545 14.881 5.893 14.971 6.038 C 15.005 6.094999 15.066 6.215 15.103 6.305 C 15.208 6.546 15.298 6.651001 15.477 6.735001 C 15.617 6.802999 15.763 6.816999 15.98 6.780001 C 16.323 6.722 16.587 6.727001 16.923 6.796 C 18.066999 7.026001 19.063 7.969 19.504 9.233 C 19.889 10.341 19.780001 11.5 19.208 12.386 C 19.111 12.536 19.014999 12.656 18.875 12.805 C 18.573999 13.127 18.573999 13.527 18.874001 13.858 C 19.367001 14.397 19.674999 15.724 19.582001 16.893999 C 19.52 17.666 19.322001 18.357 19.049 18.747999 C 18.98148 18.839952 18.906563 18.926239 18.825001 19.006001 C 18.746321 19.077448 18.680674 19.162043 18.631001 19.256001 C 18.577 19.365 18.573999 19.384001 18.573999 19.549 L 18.573999 19.726999 L 18.722 20.017 C 18.969999 20.493 19.101999 20.84 19.219999 21.312 C 19.473 22.32 19.451 23.322001 19.160999 23.893 C 19.14427 23.9247 19.129574 23.957434 19.117001 23.990999 C 19.117001 23.997 19.445999 24 19.849001 24 L 20.579 24 L 20.599001 23.926001 L 20.635 23.792 C 20.653999 23.716 20.691999 23.492001 20.723 23.275999 C 20.752001 23.059 20.752001 22.26 20.723 22.018 C 20.613001 21.143 20.427999 20.448 20.125999 19.792 C 20.094 19.718 20.073 19.653999 20.08 19.650999 C 20.087999 19.646 20.136999 19.577 20.188 19.499001 C 20.563999 18.93 20.795 18.215 20.912001 17.271 C 20.943001 17.011 20.943001 15.893 20.912001 15.643 C 20.829 14.998 20.73 14.561 20.563999 14.118 C 20.469294 13.877924 20.359406 13.644118 20.235001 13.418 L 20.197001 13.354 L 20.327999 13.16 C 20.73 12.556 20.964001 11.898 21.055 11.12 C 21.093546 10.667706 21.085503 10.212649 21.031 9.762 C 20.902851 8.920275 20.58145 8.11968 20.091999 7.423 C 19.821392 7.042843 19.501991 6.699907 19.142 6.403 C 19.079252 6.353256 19.017244 6.302584 18.955999 6.250999 C 18.953077 6.180901 18.960833 6.110767 18.979 6.042999 C 19.187 4.955999 19.18 3.6 18.962 2.540001 C 18.771999 1.615999 18.427 0.882 17.982 0.458 C 17.628 0.120001 17.266001 -0.024 16.832001 0.003 C 15.836 0.062 15.032 1.208 14.716 3.013 C 14.670657 3.253082 14.638277 3.495434 14.619 3.739 C 14.619 3.775 14.612 3.805 14.604 3.805 C 14.552147 3.783409 14.502289 3.757309 14.455 3.726999 C 13.713426 3.279987 12.865832 3.039347 12 3.030001 C 11.168 3.030001 10.313 3.273001 9.544 3.728001 C 9.497036 3.758266 9.447514 3.784367 9.396 3.806 C 9.388 3.806 9.381 3.776001 9.381 3.74 C 9.361873 3.49675 9.329492 3.254723 9.284 3.014999 C 8.997 1.392 8.337 0.319 7.46 0.048 C 7.267885 0.006987 7.070958 -0.006815 6.875 0.007 Z M 7.167 1.409 C 7.415 1.605999 7.69 2.167999 7.849 2.797001 C 7.879 2.91 7.909 3.041 7.918 3.089001 C 7.925 3.136 7.944 3.240999 7.959 3.322001 C 8.026 3.687 8.057 4.082001 8.061 4.562 L 8.063 5.037001 L 7.943 5.212 L 7.825 5.389999 L 7.547 5.389999 C 7.223 5.389999 6.901 5.431 6.593 5.514 L 6.355 5.573999 C 6.322 5.580999 6.317 5.570999 6.298 5.43 C 6.196208 4.658632 6.201592 3.876892 6.314 3.107 C 6.438 2.319 6.727 1.605999 7.01 1.396 C 7.077 1.346001 7.089 1.347 7.167 1.409 Z M 16.992001 1.396999 C 17.162001 1.523001 17.35 1.857 17.49 2.285 C 17.77 3.139 17.85 4.313 17.702 5.43 C 17.683001 5.57 17.677999 5.580999 17.645 5.573999 L 17.407 5.514 C 17.095766 5.431248 16.775047 5.389561 16.452999 5.389999 L 16.174999 5.389999 L 16.056 5.212 L 15.937 5.037001 L 15.939 4.563 C 15.943 3.894001 16.004999 3.372999 16.153 2.791 C 16.309999 2.167999 16.587 1.605999 16.833 1.409 C 16.910999 1.347 16.923 1.346001 16.992001 1.396999 Z"/>
</svg>
