<?xml version="1.0" encoding="UTF-8"?>
<!-- Generated by Pixelmator Pro 3.6.18 -->
<svg width="24" height="24" viewBox="0 0 24 24" xmlns="http://www.w3.org/2000/svg">
    <path id="Path" fill="none" stroke="#ffffff" stroke-width="2" stroke-linecap="round" stroke-linejoin="round" d="M 12.22 2 L 11.78 2 C 10.67543 2 9.78 2.895432 9.78 4 L 9.78 4.18 C 9.779268 4.893799 9.398168 5.553101 8.78 5.91 L 8.35 6.16 C 7.731198 6.517265 6.968802 6.517265 6.35 6.16 L 6.2 6.08 C 5.244409 5.528767 4.022929 5.855389 3.47 6.809999 L 3.25 7.190001 C 2.698766 8.145592 3.025389 9.367071 3.98 9.92 L 4.13 10.02 C 4.745089 10.375105 5.125713 11.029778 5.13 11.74 L 5.13 12.25 C 5.132848 12.967369 4.751268 13.631318 4.13 13.99 L 3.98 14.08 C 3.025389 14.632929 2.698766 15.854408 3.25 16.809999 L 3.47 17.190001 C 4.022929 18.144611 5.244409 18.471233 6.2 17.92 L 6.35 17.84 C 6.968802 17.482735 7.731198 17.482735 8.35 17.84 L 8.78 18.09 C 9.398168 18.446899 9.779268 19.106201 9.78 19.82 L 9.78 20 C 9.78 21.10457 10.67543 22 11.78 22 L 12.22 22 C 13.32457 22 14.22 21.10457 14.22 20 L 14.22 19.82 C 14.220732 19.106201 14.601832 18.446899 15.22 18.09 L 15.65 17.84 C 16.268803 17.482735 17.031199 17.482735 17.65 17.84 L 17.799999 17.92 C 18.75559 18.471233 19.97707 18.144611 20.530001 17.190001 L 20.75 16.799999 C 21.301233 15.844409 20.974611 14.62293 20.02 14.07 L 19.870001 13.99 C 19.248732 13.631318 18.867151 12.967369 18.870001 12.25 L 18.870001 11.75 C 18.867151 11.032631 19.248732 10.368682 19.870001 10.01 L 20.02 9.92 C 20.974611 9.367071 21.301233 8.145592 20.75 7.190001 L 20.530001 6.809999 C 19.97707 5.855389 18.75559 5.528767 17.799999 6.08 L 17.65 6.16 C 17.031199 6.517265 16.268803 6.517265 15.65 6.16 L 15.22 5.91 C 14.601832 5.553101 14.220732 4.893799 14.22 4.18 L 14.22 4 C 14.22 2.895432 13.32457 2 12.22 2 Z"/>
    <path id="path1" fill="none" stroke="#ffffff" stroke-width="2" stroke-linecap="round" stroke-linejoin="round" d="M 15 12 C 15 13.656855 13.656855 15 12 15 C 10.343145 15 9 13.656855 9 12 C 9 10.343145 10.343145 9 12 9 C 13.656855 9 15 10.343145 15 12 Z"/>
</svg>
