<?xml version="1.0" encoding="UTF-8"?>
<!-- Generated by Pixelmator Pro 3.6.18 -->
<svg width="24" height="24" viewBox="0 0 24 24" xmlns="http://www.w3.org/2000/svg">
    <path id="Path" fill="none" stroke="#ffffff" stroke-width="2" stroke-linecap="round" stroke-linejoin="round" d="M 4 14 C 3.61375 14.001317 3.261276 13.780072 3.09455 13.431657 C 2.927824 13.083241 2.976659 12.66996 3.22 12.37 L 13.12 2.17 C 13.27295 1.993454 13.527758 1.946333 13.73373 2.056503 C 13.939703 2.166676 14.041949 2.404778 13.98 2.630001 L 12.06 8.65 C 11.945078 8.957575 11.988468 9.301969 12.17609 9.571426 C 12.363712 9.840883 12.671659 10.001068 13 10 L 20 10 C 20.38625 9.998683 20.738724 10.219928 20.905451 10.568343 C 21.072176 10.916759 21.023342 11.33004 20.780001 11.63 L 10.88 21.83 C 10.72705 22.006546 10.472242 22.053667 10.26627 21.943497 C 10.060297 21.833324 9.958051 21.595222 10.02 21.370001 L 11.94 15.35 C 12.054922 15.042425 12.011532 14.698031 11.82391 14.428574 C 11.636288 14.159117 11.328341 13.998932 11 14 Z"/>
</svg>
